<?xml version="1.0" standalone="no"?>
<!DOCTYPE svg PUBLIC "-//W3C//DTD SVG 20010904//EN"
 "http://www.w3.org/TR/2001/REC-SVG-20010904/DTD/svg10.dtd">
<svg version="1.0" xmlns="http://www.w3.org/2000/svg"
 width="400.000000pt" height="200.000000pt" viewBox="0 0 400.000000 200.000000"
 preserveAspectRatio="xMidYMid meet">
<rect x="0" y="0" width="450" height="140" fill="#2b2845" />
<g transform="translate(16.500000,150.000000) scale(0.100000,-0.100000)"
fill="#ffffff" stroke="none">
<path d="M188 1089 c-10 -5 -18 -16 -18 -24 0 -7 -15 -19 -34 -25 -69 -22
-136 -122 -136 -200 0 -132 130 -237 260 -209 91 19 170 117 170 209 0 79 -68
176 -141 202 -16 5 -29 14 -29 18 0 13 -30 40 -43 40 -7 0 -20 -5 -29 -11z
m50 -32 c4 -20 -25 -34 -40 -19 -15 15 -1 44 19 40 10 -2 19 -11 21 -21z m49
-102 c88 -58 79 -188 -17 -238 -116 -60 -240 85 -167 194 43 65 122 84 184 44z"/>
<path d="M208 910 c6 -44 -14 -63 -60 -57 -33 4 -38 2 -38 -15 0 -84 114 -131
173 -72 46 46 44 108 -4 153 -13 12 -35 21 -49 21 -24 0 -26 -3 -22 -30z"/>
<path d="M430 1050 l0 -49 83 -3 82 -3 3 -222 2 -223 60 0 60 0 0 225 0 225
80 0 80 0 0 50 0 50 -225 0 -225 0 0 -50z"/>
<path d="M1820 824 l0 -275 28 3 27 3 3 123 3 122 104 0 c137 0 151 -10 165
-125 17 -128 15 -125 56 -125 32 0 35 2 24 15 -7 9 -19 59 -25 112 -11 79 -17
100 -38 120 l-24 25 35 32 c28 27 35 41 39 82 7 73 -15 120 -69 144 -36 16
-66 20 -185 20 l-143 0 0 -276z m306 211 c51 -35 55 -122 8 -166 -23 -22 -35
-24 -140 -28 l-114 -3 0 106 0 106 113 0 c82 0 118 -4 133 -15z"/>
<path d="M3300 825 c0 -268 0 -275 20 -275 19 0 20 7 21 128 0 71 5 142 12
161 16 46 55 73 107 75 34 1 46 -4 66 -27 23 -27 24 -34 24 -183 l0 -154 26 0
25 0 -3 169 c-3 164 -4 170 -27 195 -51 54 -143 58 -201 10 l-30 -26 0 101 c0
94 -1 101 -20 101 -20 0 -20 -7 -20 -275z"/>
<path d="M1610 1005 l0 -65 -30 0 c-28 0 -30 -2 -30 -40 0 -38 2 -40 30 -40
l30 0 0 -120 c0 -68 5 -130 11 -144 14 -30 55 -46 120 -46 l49 0 0 45 c0 43
-1 45 -29 45 -36 0 -41 16 -41 133 l0 87 35 0 c34 0 35 1 35 39 0 37 -2 40
-32 43 -33 3 -33 3 -36 66 l-3 62 -54 0 -55 0 0 -65z"/>
<path d="M915 945 c-50 -18 -100 -71 -114 -122 -54 -194 108 -341 285 -259 44
21 94 73 94 100 0 3 -25 6 -55 6 -41 0 -63 -6 -85 -21 -50 -37 -130 -5 -130
53 0 16 12 18 135 18 l135 0 0 43 c-1 140 -131 229 -265 182z m125 -95 c39
-39 27 -50 -55 -50 -84 0 -96 12 -49 49 34 27 78 27 104 1z"/>
<path d="M1309 951 c-69 -22 -99 -61 -99 -126 0 -55 38 -88 130 -110 86 -20
102 -30 98 -58 -6 -43 -104 -41 -123 1 -8 19 -18 22 -62 22 -61 0 -67 -12 -33
-67 24 -40 68 -63 134 -70 100 -10 178 29 196 98 24 87 -20 137 -136 159 -73
14 -100 30 -91 54 10 25 93 22 109 -4 10 -16 24 -20 66 -20 51 0 53 1 46 23
-12 38 -36 67 -67 84 -35 18 -131 26 -168 14z"/>
<path d="M2323 941 c-103 -47 -135 -234 -57 -338 47 -62 162 -81 223 -35 27
19 71 78 71 93 0 5 -10 9 -22 9 -15 -1 -30 -13 -43 -33 -13 -20 -35 -37 -61
-46 -37 -13 -44 -12 -79 5 -47 23 -74 58 -82 107 l-6 37 147 0 146 0 0 43 c0
65 -36 127 -90 155 -54 27 -92 28 -147 3z m110 -32 c43 -12 77 -57 77 -101 l0
-28 -121 0 c-120 0 -120 0 -114 23 14 46 42 83 75 99 41 21 35 21 83 7z"/>
<path d="M2672 940 c-31 -14 -47 -29 -57 -54 -20 -48 -19 -56 9 -56 18 0 27 8
35 30 13 39 68 64 121 55 51 -9 72 -33 68 -81 l-3 -38 -96 -17 c-113 -20 -145
-37 -160 -90 -24 -79 34 -149 124 -149 44 0 96 20 116 43 19 23 28 21 35 -8 5
-21 12 -25 46 -25 29 0 40 4 40 15 0 8 -9 15 -19 15 -28 0 -31 18 -31 169 0
124 -2 141 -20 164 -38 48 -135 60 -208 27z m184 -233 c-16 -99 -99 -152 -180
-116 -47 22 -56 99 -14 125 18 12 181 42 192 36 4 -2 5 -23 2 -45z"/>
<path d="M3043 941 c-62 -29 -94 -84 -101 -170 -5 -78 8 -127 46 -173 84 -99
254 -62 278 61 6 26 3 31 -13 31 -13 0 -25 -13 -36 -39 -21 -48 -71 -75 -119
-66 -70 13 -108 71 -108 163 0 106 42 164 121 166 47 1 85 -20 101 -56 13 -29
58 -41 58 -15 0 20 -37 75 -63 92 -40 26 -116 29 -164 6z"/>
<path d="M72 610 c-37 -23 -50 -46 -34 -62 7 -7 29 -4 71 11 72 25 140 26 196
5 22 -9 51 -17 65 -18 38 -2 32 33 -10 61 -27 19 -41 22 -65 16 -38 -10 -121
-10 -160 0 -22 5 -38 2 -63 -13z"/>
</g>
</svg>
