<svg xmlns:xlink="http://www.w3.org/1999/xlink" xmlns="http://www.w3.org/2000/svg" width="308" height="85" viewBox="0 0 308 85">
<circle cx="42.4998" cy="42.5002" r="42.4998" fill="#27E7D7"/>
<path d="M21.2489 63.7462C32.9841 75.4814 52.0107 75.4814 63.746 63.7462L21.2489 21.249C9.51361 32.9843 9.5136 52.0109 21.2489 63.7462Z" fill="#09095C"/>
<path d="M63.7456 21.2489C75.4808 32.9841 75.4808 52.0107 63.7456 63.746L21.2484 21.2489C32.9837 9.51361 52.0103 9.51361 63.7456 21.2489Z" fill="#FFE232"/>
<path d="M31.4185 53.6795C37.5656 59.8266 47.532 59.8266 53.6792 53.6795L31.4185 31.4188C25.2714 37.5659 25.2714 47.5324 31.4185 53.6795Z" fill="#0ABCF2"/>
<path d="M53.679 31.4186C59.8261 37.5657 59.8261 47.5322 53.679 53.6793L31.4183 31.4186C37.5654 25.2715 47.5319 25.2715 53.679 31.4186Z" fill="white"/>
<path fill-rule="evenodd" clip-rule="evenodd" d="M152.97 7.06858C146.93 8.40452 144.612 15.1333 148.555 19.8874C152.006 24.0487 158.797 23.164 161.26 18.2322C161.501 17.7497 161.781 16.9729 161.848 16.6014C161.868 16.4892 161.914 16.2687 161.95 16.1113C162.035 15.7398 162.035 13.7635 161.949 13.3931C161.913 13.2357 161.867 13.0104 161.846 12.8923C161.74 12.289 161.2 11.0442 160.797 10.4767C160.679 10.3103 160.507 10.0614 160.414 9.92373C160.068 9.4127 159.055 8.51046 158.263 8.00894C157.675 7.63633 156.608 7.24812 155.667 7.06479C155.214 6.97651 153.374 6.97909 152.97 7.06858ZM116.917 8.39551C114.727 8.63264 112.262 9.26763 110.444 10.0631C110.07 10.2266 109.652 10.4074 109.514 10.4647C107.024 11.5027 103.607 14.176 102.117 16.2506C102.002 16.41 101.886 16.5566 101.859 16.5763C101.831 16.5959 101.57 16.9661 101.279 17.3989C98.8678 20.9812 97.9243 24.2254 97.9298 28.9156C97.9381 35.9487 99.6744 40.0573 104.22 43.7999C106.252 45.4721 107.85 46.3796 111.231 47.781C111.526 47.9033 111.934 48.0784 112.138 48.1701C112.342 48.2617 112.531 48.3368 112.557 48.3368C112.583 48.3368 112.705 48.3835 112.829 48.4406C113.038 48.5368 113.751 48.8254 114.521 49.125C115.121 49.3584 116.128 49.7747 116.596 49.9821C116.851 50.0956 117.463 50.3554 117.955 50.5595C120.481 51.6075 121.036 51.8885 122.032 52.622C122.612 53.0491 123.21 53.6141 123.431 53.9438C123.508 54.0572 123.658 54.2825 123.767 54.4445C124.583 55.6667 124.602 57.9337 123.808 59.3528C123.155 60.5208 121.737 61.6086 120.136 62.1711C119.94 62.2402 119.714 62.3245 119.636 62.3583C118.606 62.8014 115.954 62.9897 114.45 62.7265C113.845 62.6207 113.063 62.4941 112.983 62.4892C112.944 62.4868 112.799 62.4438 112.661 62.3938C112.524 62.3437 112.266 62.2625 112.089 62.2134C110.548 61.7855 108.446 60.5984 107.261 59.4875C107.103 59.34 106.885 59.1493 106.775 59.0639L106.575 58.9083L106.31 59.1006C106.164 59.2064 105.884 59.4217 105.687 59.5792C105.375 59.8286 104.942 60.1642 104.04 60.855C103.911 60.9533 103.317 61.4201 102.718 61.8922C102.12 62.3643 101.526 62.8311 101.398 62.9294C101.271 63.0278 100.915 63.3014 100.608 63.5374C100.301 63.7735 99.9183 64.0683 99.7569 64.1925C99.5955 64.3168 98.8841 64.8722 98.1759 65.4266C97.4677 65.9811 96.7329 66.5554 96.543 66.7029C96.353 66.8503 95.9281 67.1841 95.5988 67.4445L95 67.918L95.5729 68.6248C95.888 69.0135 96.2646 69.4767 96.4098 69.6541C96.5549 69.8315 96.8342 70.1212 97.0304 70.2979C97.2265 70.4746 97.5323 70.7526 97.7099 70.9156C98.6806 71.8067 100.907 73.3878 102.003 73.9647C102.18 74.0579 102.666 74.3137 103.083 74.5332C103.792 74.9067 104.091 75.0435 105.079 75.4458C105.295 75.5339 105.537 75.6335 105.615 75.6669C107.115 76.305 110.202 77.151 111.874 77.3823C112.209 77.4286 112.643 77.4975 112.84 77.5355C114.536 77.8633 119.736 77.8629 121.424 77.5347C121.621 77.4965 122.023 77.4279 122.318 77.3824C122.982 77.2799 124.296 76.9791 124.822 76.809C125.038 76.739 125.36 76.6413 125.537 76.5919C125.714 76.5425 125.956 76.4615 126.074 76.412C126.192 76.3624 126.369 76.2985 126.467 76.2698C127.338 76.0162 129.947 74.6941 130.904 74.0213C133.429 72.2465 135.374 70.2788 136.672 68.1871C136.891 67.8346 137.626 66.508 137.626 66.4661C137.626 66.4542 137.72 66.2411 137.835 65.9924C138.15 65.3109 138.914 63.1617 138.914 62.9562C138.914 62.9057 138.991 62.5812 139.084 62.2352C140.57 56.7574 139.7 48.3252 137.263 44.5813C137.109 44.3452 136.961 44.1038 136.934 44.0448C136.907 43.9858 136.718 43.7282 136.515 43.4724C135.121 41.7154 132.868 39.7039 131.086 38.6238C130.808 38.4554 130.532 38.2876 130.473 38.2509C129.889 37.8888 128.147 37.0443 127.576 36.8465C127.418 36.792 127.225 36.7188 127.147 36.6837C127.068 36.6485 126.891 36.5799 126.753 36.5309C126.615 36.4821 126.326 36.3693 126.109 36.2803C125.893 36.1913 125.442 36.0166 125.108 35.8921C124.774 35.7676 124.403 35.622 124.285 35.5684C124.101 35.4846 123.4 35.2015 121.102 34.2814C120.846 34.179 120.492 34.0338 120.315 33.9588C120.138 33.8837 119.752 33.7205 119.457 33.596C119.162 33.4715 118.792 33.3119 118.634 33.2414C118.477 33.1708 118.058 32.985 117.704 32.8284C114.812 31.5495 113.346 29.7636 113.346 27.5208C113.346 22.6651 120.578 20.472 125.895 23.7155C126.072 23.8235 126.324 23.9755 126.456 24.0532C126.588 24.1309 126.804 24.275 126.936 24.3733C127.068 24.4717 127.292 24.6326 127.433 24.731C127.574 24.8293 127.959 25.1271 128.288 25.3927C129.066 26.0196 128.738 26.1558 131.305 24.1405C131.468 24.0128 131.962 23.6347 132.403 23.3003C132.845 22.9659 133.673 22.3302 134.243 21.8876C134.814 21.4451 135.769 20.7131 136.364 20.2611C136.96 19.809 137.721 19.2276 138.055 18.969C138.39 18.7104 138.897 18.3209 139.182 18.1035C139.779 17.6484 139.775 17.6584 139.469 17.2661C137.406 14.6257 134.066 12.0138 131.045 10.6796C130.75 10.5493 130.364 10.3761 130.187 10.2948C128.412 9.47965 125.455 8.70145 123.069 8.42176C121.589 8.24815 118.405 8.23456 116.917 8.39551ZM189.022 26.4614C187.986 26.5259 185.374 26.9186 184.838 27.0905C184.739 27.122 184.466 27.1873 184.23 27.2357C183.035 27.4803 181.179 28.1185 179.652 28.8093C177.037 29.9922 174.46 32.1978 172.882 34.6025C172.534 35.1323 171.676 36.645 171.676 36.7278C171.676 36.744 171.597 36.9243 171.501 37.1284C171.2 37.7682 170.64 39.3574 170.476 40.039C170.121 41.5067 170.021 41.9803 169.895 42.793C169.568 44.8912 169.576 44.496 169.549 60.7298L169.524 76.2345H176.963H184.402L184.429 61.1232C184.453 47.4689 184.467 45.9499 184.574 45.3681C185.255 41.6449 186.861 40.1722 190.998 39.4749C192.131 39.2839 194.811 39.389 196.236 39.6802C197.213 39.8799 198.681 40.5211 199.196 40.973C199.327 41.0888 199.45 41.1835 199.469 41.1835C199.487 41.1835 199.502 38.2138 199.502 34.5842V27.985L199.091 27.8344C198.443 27.5972 197.558 27.3189 197.284 27.2662C197.147 27.2397 196.905 27.178 196.748 27.1292C196.002 26.8976 193.569 26.5358 192.206 26.4535C190.771 26.3669 190.53 26.3676 189.022 26.4614ZM228.794 26.5639C228.353 26.6243 226.63 26.8791 226.148 26.9554C225.872 26.9989 225.567 27.0616 225.468 27.0946C225.37 27.1276 225.096 27.1924 224.86 27.2383C224.624 27.2844 224.173 27.3999 223.859 27.495C223.544 27.5901 223.174 27.7013 223.036 27.7422C222.898 27.7829 222.721 27.8449 222.643 27.8799C222.564 27.9149 222.339 27.9914 222.142 28.0498C221.802 28.1508 221.191 28.3848 220.572 28.6512C219.92 28.9319 218.023 29.8993 217.501 30.2173C217.191 30.4063 216.884 30.5931 216.82 30.6324C216.755 30.6718 216.467 30.8649 216.18 31.0616C215.892 31.2583 215.584 31.4676 215.496 31.5266C215.323 31.6425 214.394 32.3727 214.268 32.4913C214.226 32.5312 214.033 32.692 213.839 32.8487C213.404 33.2004 211.23 35.3771 210.84 35.8522C210.157 36.6832 209.081 38.1669 208.734 38.7555C208.677 38.8515 208.503 39.1394 208.346 39.3952C206.875 41.7952 205.718 44.9892 205.264 47.9076C205.2 48.3207 205.109 48.8679 205.063 49.1236C204.949 49.7483 204.948 54.3866 205.062 54.882C205.107 55.0787 205.196 55.6098 205.26 56.0623C205.949 60.9433 208.25 65.5425 212.056 69.6459C212.471 70.0933 214.31 71.7483 214.639 71.9704C214.762 72.0535 215.036 72.2532 215.248 72.4144C216.529 73.3898 218.528 74.5644 220.103 75.2666C220.438 75.4156 220.841 75.5956 221 75.6665C222.61 76.3837 225.422 77.166 227.149 77.3771C227.543 77.4251 227.696 77.4536 228 77.5001C228.275 77.5423 230.235 77.7484 230.884 77.7484C230.755 77.7484 231.646 77.7484 230.884 77.7484C231.602 77.7484 234.029 77.6709 234.732 77.5354C234.928 77.4974 235.363 77.4266 235.697 77.3781C236.309 77.2893 237.818 76.9523 238.416 76.771C239.451 76.4569 239.806 76.3406 240.419 76.116C240.792 75.9789 241.268 75.7885 241.476 75.6929C241.683 75.5973 241.874 75.5191 241.899 75.5191C242.456 75.5191 246.831 72.7617 248.077 71.6256C248.295 71.4261 248.776 70.9893 249.144 70.6549C249.73 70.1228 251.47 68.2321 251.418 68.1841C251.407 68.1744 251.077 67.92 250.683 67.6187C250.29 67.3174 249.795 66.9358 249.583 66.7706C249.372 66.6054 249.11 66.4059 249.002 66.3272C248.767 66.1552 246.751 64.606 245.562 63.6827C245.31 63.4872 244.828 63.117 244.492 62.8601C244.155 62.6031 243.547 62.1354 243.14 61.8207C242.733 61.5059 242.168 61.0713 241.885 60.855C241.602 60.6386 241.187 60.3194 240.962 60.1456L240.553 59.8298L239.788 60.592C236.009 64.3593 230.312 65.3007 225.754 62.911C222.439 61.1726 219.768 57.5187 219.35 54.1488L219.303 53.7732H235.436C246.114 53.7732 251.328 53.7017 251.613 53.7017C251.98 53.7017 252.694 53.7017 254.539 53.7017H257.453L257.503 52.897C257.579 52.2069 257.529 50.3413 257.409 49.3024C257.386 49.1057 257.334 48.6551 257.293 48.301C257.207 47.5659 257.012 46.6045 256.749 45.6185C256.416 44.3748 256.273 43.9187 256.007 43.2579C254.954 40.6403 254.269 39.3661 252.724 37.1499C251.835 35.8741 250.228 34.1814 248.434 32.6306C248.159 32.3935 247.076 31.5604 246.785 31.363C246.105 30.9011 245.695 30.6364 244.961 30.1834C242.606 28.7308 238.641 27.2999 235.805 26.8787C235.529 26.8378 235.014 26.7529 234.66 26.69C234.045 26.5807 229.401 26.481 228.794 26.5639ZM283.875 26.5937C283.639 26.6281 283.075 26.7091 282.623 26.7735C272.716 28.1854 267.057 33.2857 265.521 42.1849C265.032 45.0224 265.032 45.0003 265.029 61.7312L265.026 76.2345H272.465H279.905L279.907 61.8385C279.91 44.3718 279.883 44.9008 280.893 42.8287C282.876 38.7613 289.472 38.8731 291.455 43.0076C292.364 44.9028 292.345 44.5048 292.349 61.767L292.351 76.2345H299.791H307.23L307.228 61.4809C307.227 46.9994 307.195 44.6648 306.985 43.7229C306.968 43.6442 306.918 43.3223 306.874 43.0076C306.708 41.8268 306.346 40.1543 306.122 39.5386C306.072 39.4007 305.991 39.143 305.942 38.966C305.892 38.7889 305.792 38.5076 305.718 38.3409C305.645 38.174 305.585 38.0096 305.585 37.9754C305.585 37.8678 304.784 36.155 304.526 35.7112C303.637 34.1816 303.046 33.4067 301.873 32.2329C300.858 31.2173 300.404 30.8397 299.326 30.1182C298.797 29.7644 297.399 28.9514 297.319 28.9514C297.307 28.9514 297.053 28.8387 296.755 28.701C296.457 28.5633 296.197 28.4507 296.177 28.4507C296.157 28.4507 296.004 28.3884 295.838 28.3124C295.551 28.1819 294.654 27.8795 293.531 27.5353C292.709 27.2832 291.388 27.025 289.383 26.7248C288.208 26.549 284.746 26.4665 283.875 26.5937ZM147.173 28.5401C147.154 28.5893 147.147 39.3648 147.157 52.4856L147.176 76.3418H154.579H161.983L162.001 52.3962L162.019 28.4507H154.613C148.754 28.4507 147.2 28.4694 147.173 28.5401ZM233.443 39.1429C236.681 39.7851 239.92 41.9542 241.376 44.4561C241.418 44.5275 239.377 44.5455 231.269 44.5455H221.11L221.336 44.2057C223.228 41.3598 226.499 39.4076 230.046 39.007C230.613 38.943 232.896 39.0343 233.443 39.1429Z" fill="#FFDB6E"/>
</svg>