<?xml version="1.0" standalone="no"?>
<!DOCTYPE svg PUBLIC "-//W3C//DTD SVG 20010904//EN"
 "http://www.w3.org/TR/2001/REC-SVG-20010904/DTD/svg10.dtd">
<svg version="1.0" xmlns="http://www.w3.org/2000/svg"
 width="924.000000pt" height="301.000000pt" viewBox="0 0 924.000000 301.000000"
 preserveAspectRatio="xMidYMid meet">

<g transform="translate(0.000000,301.000000) scale(0.100000,-0.100000)">
<path d="M0 1505 l0 -1505 4620 0 4620 0 0 1505 0 1505 -4620 0 -4620 0 0
-1505z m1730 461 c0 -34 0 -34 -61 -45 -69 -12 -89 -24 -89 -54 0 -26 213
-489 221 -479 3 4 68 143 145 310 l138 302 76 0 75 0 139 -303 c77 -166 142
-305 145 -309 8 -9 221 453 221 479 0 30 -20 42 -89 54 -61 11 -61 11 -61 45
l0 34 535 0 535 0 0 -35 c0 -34 -1 -34 -49 -41 -76 -10 -108 -34 -116 -86 -3
-24 -5 -193 -3 -376 l3 -334 27 -23 c18 -15 47 -26 83 -30 55 -7 55 -8 55 -41
l0 -34 -310 0 -310 0 0 34 c0 33 0 34 55 41 36 4 65 15 83 30 l27 23 3 346 c1
190 -1 360 -6 377 -14 57 -50 74 -153 74 -85 0 -90 -1 -118 -30 -20 -20 -98
-177 -228 -460 l-199 -430 -64 0 -64 0 -150 323 -149 322 -150 -325 -150 -326
-64 3 -64 3 -198 430 c-109 237 -209 442 -223 457 -16 18 -39 28 -71 33 -45 7
-47 8 -47 41 l0 34 310 0 310 0 0 -34z m2981 20 c171 -37 242 -128 209 -266
-24 -99 -113 -182 -238 -220 -73 -23 -219 -36 -276 -26 -33 6 -36 10 -36 41 0
33 2 34 29 29 15 -3 55 0 87 6 168 35 210 259 63 336 -46 23 -138 36 -206 29
l-63 -7 0 -388 c0 -450 -6 -422 100 -444 62 -12 65 -14 68 -44 l3 -32 -315 0
-316 0 0 34 c0 32 1 33 49 39 64 8 107 30 115 59 3 13 6 181 6 375 0 351 0
352 -22 378 -17 19 -39 28 -85 36 -63 11 -63 11 -63 45 l0 34 413 0 c316 0
428 -4 478 -14z m1287 -103 l-3 -118 -36 -3 c-35 -3 -36 -2 -43 37 -9 57 -25
87 -53 100 -15 7 -95 11 -208 11 l-185 0 0 -181 0 -181 149 4 c167 3 185 10
197 74 6 31 10 34 40 34 l34 0 0 -160 0 -160 -34 0 c-32 0 -34 2 -40 45 -12
76 -32 85 -202 85 l-144 0 0 -173 c0 -203 0 -203 103 -222 60 -10 62 -12 65
-43 l3 -32 -315 0 -316 0 0 34 c0 32 1 33 48 39 65 8 99 24 112 56 7 18 10
140 8 384 -3 413 3 389 -106 408 -62 11 -62 11 -62 45 l0 34 495 0 496 0 -3
-117z m752 82 c0 -34 -1 -34 -49 -41 -72 -9 -107 -34 -114 -80 -4 -22 -7 -200
-7 -396 l0 -358 201 0 201 0 32 33 c21 20 38 51 46 84 14 52 14 53 52 53 21 0
38 -3 38 -7 0 -5 -9 -60 -20 -123 -11 -63 -20 -118 -20 -122 0 -5 -220 -8
-490 -8 l-490 0 0 34 c0 33 1 33 51 39 61 7 96 28 110 64 6 16 9 163 7 379 -3
409 3 386 -106 405 -62 11 -62 11 -62 45 l0 34 310 0 310 0 0 -35z m1120 1 c0
-34 0 -34 -62 -45 -47 -8 -69 -17 -85 -36 -23 -26 -23 -27 -23 -378 0 -194 3
-362 6 -375 8 -29 51 -51 115 -59 48 -6 49 -7 49 -39 l0 -34 -315 0 -315 0 0
35 c0 31 3 35 26 35 48 0 115 22 129 43 13 18 15 82 15 385 0 221 -4 371 -10
382 -11 20 -49 35 -117 45 -41 6 -43 8 -43 41 l0 34 315 0 315 0 0 -34z"/>
</g>
</svg>
