<?xml version="1.0" encoding="utf-8"?>
<!-- Generator: Adobe Illustrator 25.0.1, SVG Export Plug-In . SVG Version: 6.00 Build 0)  -->
<svg version="1.1" id="katman_1" xmlns="http://www.w3.org/2000/svg" xmlns:xlink="http://www.w3.org/1999/xlink" x="0px" y="0px"
	 viewBox="0 0 560 400" style="enable-background:new 0 0 560 400;" xml:space="preserve">
<style type="text/css">
	.st0{fill:#FFD100;}
	.st1{fill:#58595B;}
</style>
<g>
	<path class="st0" d="M366.9,217.5c-3.4-3.7-1.4-11.1,0.4-19.4l6-28.3h24.7l4.5-21.1h-24.8l4.4-21h-23.3L343.6,200c-2.3,10.8-3.2,19.2,1.5,28.3
		c4.4,8.5,19.2,16.5,38.1,11.4l4.2-19.5C374.6,221.8,369.5,220.1,366.9,217.5"/>
	<path class="st0" d="M169.4,127.7l-11.1,52.2h-40.9l11.1-52.2h-23.5L81.1,239.8h23.5l8.2-38.8h41l-8.2,38.8h23.3l23.8-112.1H169.4z"/>
	<path class="st0" d="M303.8,156.6c-8.2,6.8-12.8,15.7-15.8,29.8l-11.3,53.3H300l9.4-44.2c2.2-10.3,3.9-16.8,7.8-20.8c5.3-5.5,13.1-5.8,22.4-5
		l4.5-21.1C327.7,144.5,313.4,148.6,303.8,156.6"/>
	<path class="st0" d="M486,148.7h-72.9l-4.5,21.1h42.3l-52.9,49.8l-4.3,20.3h72.9l4.5-21h-42.5l53.1-50L486,148.7z"/>
	<path class="st0" d="M240.1,147c-7.9,0-18.7,2.4-29.3,10.8c-23.9,18.7-35.7,83.6,15.6,83.6c13.3,0,28.1-4.2,38.4-12l-9.3-15.7
		c-7.8,6-46.9,19-42.8-12.7h61.1c0-0.1,7.8-25.4-3.4-40.7C260.9,147.2,243.3,147,240.1,147 M255.3,181.8h-37.4
		c1.3-5,9.3-17.4,24-16.1C257.8,167.2,255.3,181.8,255.3,181.8"/>
</g>
</svg>
