<?xml version="1.0" standalone="no"?>
<!DOCTYPE svg PUBLIC "-//W3C//DTD SVG 20010904//EN"
 "http://www.w3.org/TR/2001/REC-SVG-20010904/DTD/svg10.dtd">
<svg version="1.0" xmlns="http://www.w3.org/2000/svg"
 width="220.000000pt" height="100.000000pt" viewBox="0 0 220.000000 100.000000"
 preserveAspectRatio="xMidYMid meet">

<g transform="translate(0.000000,100.000000) scale(0.100000,-0.100000)">
<path fill="#FFDB6E" d="M110 655 c-7 -8 -24 -21 -38 -28 -36 -16 -72 -73 -72 -111 0 -45 31
-97 71 -118 29 -16 31 -18 11 -18 -32 0 -62 -18 -62 -37 0 -11 5 -14 23 -8 43
15 128 17 158 5 20 -9 33 -10 40 -3 15 15 -36 52 -64 46 -13 -2 -9 2 10 11 49
23 75 71 70 130 -4 43 -10 55 -43 83 -22 19 -46 41 -55 49 -20 18 -33 18 -49
-1z m26 -22 c-10 -10 -19 5 -10 18 6 11 8 11 12 0 2 -7 1 -15 -2 -18z m51 -65
c32 -30 31 -81 -2 -113 -72 -73 -178 28 -114 109 27 34 82 36 116 4z m-44
-195 c-7 -2 -19 -2 -25 0 -7 3 -2 5 12 5 14 0 19 -2 13 -5z"/>
<path fill="#FFDB6E" d="M124 548 c1 -19 -4 -23 -26 -23 -22 1 -28 -4 -28 -21 0 -47 71 -72
103 -36 32 35 14 102 -27 102 -17 0 -22 -5 -22 -22z"/>
<path fill="#FFDB6E" d="M260 640 c0 -29 1 -30 50 -30 l50 0 0 -135 0 -135 40 0 40 0 0 135 0
135 50 0 c49 0 50 1 50 30 l0 30 -140 0 -140 0 0 -30z"/>
<path fill="#FFDB6E" d="M1110 505 c0 -158 1 -165 20 -165 18 0 20 7 20 75 l0 75 58 0 c81 0
99 -15 108 -90 5 -50 10 -60 25 -60 15 0 18 5 15 23 -3 12 -8 43 -11 69 -3 25
-12 52 -20 58 -12 10 -11 15 7 30 34 27 31 95 -5 126 -25 22 -37 24 -123 24
l-94 0 0 -165z m195 119 c10 -11 15 -29 13 -53 -4 -45 -32 -61 -110 -61 l-58
0 0 65 0 65 69 0 c51 0 74 -4 86 -16z"/>
<path fill="#FFDB6E" d="M2010 505 c0 -140 2 -165 15 -165 12 0 15 15 15 75 0 87 17 131 55
141 16 4 35 0 50 -10 24 -16 25 -21 25 -111 0 -78 3 -95 15 -95 12 0 15 18 15
100 0 88 -2 102 -21 121 -16 16 -30 20 -62 17 -23 -3 -50 -8 -59 -12 -16 -7
-18 -2 -18 48 0 43 -3 56 -15 56 -13 0 -15 -25 -15 -165z"/>
<path fill="#FFDB6E" d="M980 610 c0 -29 -4 -40 -15 -40 -9 0 -15 -9 -15 -25 0 -16 6 -25 15
-25 12 0 15 -14 15 -68 0 -89 15 -112 76 -112 40 0 44 2 44 24 0 18 -6 25 -22
28 -21 3 -23 9 -26 65 -3 58 -1 62 20 65 33 4 38 45 6 50 -19 2 -24 10 -26 41
-3 35 -5 37 -38 37 -33 0 -34 -1 -34 -40z"/>
<path fill="#FFDB6E" d="M534 561 c-86 -52 -56 -208 43 -227 47 -9 107 10 127 41 9 13 16 27
16 30 0 9 -69 5 -75 -5 -9 -14 -58 -13 -73 2 -29 29 -13 38 69 38 l82 0 -6 43
c-12 85 -106 125 -183 78z m104 -43 c21 -21 13 -28 -33 -28 -25 0 -45 4 -45 8
0 15 24 32 45 32 12 0 26 -5 33 -12z"/>
<path fill="#FFDB6E" d="M766 559 c-53 -41 -25 -111 51 -123 50 -9 67 -20 60 -40 -9 -22 -50
-20 -72 4 -18 20 -60 27 -68 13 -10 -16 13 -53 42 -67 61 -32 155 -9 167 40
15 59 -15 88 -108 108 -38 9 -37 36 1 36 17 0 33 -4 36 -10 10 -16 65 -12 65
4 0 28 -50 56 -100 56 -33 0 -55 -6 -74 -21z"/>
<path fill="#FFDB6E" d="M1407 569 c-28 -16 -47 -64 -47 -120 0 -45 4 -55 34 -85 48 -48 95
-47 145 3 30 31 33 38 18 41 -10 2 -26 -7 -38 -22 -28 -36 -80 -36 -108 0 -12
15 -21 35 -21 45 0 17 9 19 90 19 65 0 90 3 90 13 0 33 -23 88 -43 102 -24 17
-93 20 -120 4z m93 -19 c10 -5 23 -23 28 -40 l11 -30 -75 0 c-40 0 -74 2 -74
5 0 14 31 64 42 68 21 9 48 8 68 -3z"/>
<path fill="#FFDB6E" d="M1612 557 c-12 -13 -22 -31 -22 -40 0 -24 27 -21 33 3 7 28 51 46 85
34 21 -7 27 -16 27 -38 0 -28 -3 -30 -65 -42 -37 -8 -70 -21 -77 -31 -17 -22
-17 -64 0 -86 18 -26 79 -32 117 -13 28 14 34 14 47 1 8 -8 21 -15 29 -15 19
0 18 26 -1 34 -12 4 -15 24 -15 94 0 108 -10 122 -87 122 -39 0 -54 -5 -71
-23z m128 -127 c0 -40 -31 -70 -73 -70 -36 0 -57 15 -57 41 0 23 25 41 68 50
61 11 62 11 62 -21z"/>
<path fill="#FFDB6E" d="M1847 569 c-42 -25 -62 -126 -35 -184 27 -59 112 -73 159 -26 31 32
38 61 14 61 -8 0 -15 -6 -15 -13 0 -23 -35 -47 -68 -47 -44 0 -72 39 -72 102
0 39 5 54 25 73 13 14 36 25 50 25 25 0 65 -31 65 -50 0 -5 7 -10 15 -10 23 0
18 28 -10 55 -18 19 -35 25 -67 25 -24 0 -51 -5 -61 -11z"/>
</g>
</svg>
